<svg height="512" viewBox="0 0 74 74" width="512" xmlns="http://www.w3.org/2000/svg">
  <path d="M56.082 72H17.918a3.079 3.079 0 01-3.05-2.805l-4.36-52.061a1 1 0 011-1.083H62.5a1 1 0 011 1.083l-4.36 52.061A3.079 3.079 0 0156.082 72zm-43.49-53.949l4.27 50.977a1.066 1.066 0 001.056.972h38.164a1.066 1.066 0 001.057-.972l4.27-50.977z"/>
  <path d="M66.172 18.06H7.828a2.17 2.17 0 01-2.167-2.167v-5.041a2.169 2.169 0 012.167-2.167h58.344a2.169 2.169 0 012.167 2.167v5.042a2.17 2.17 0 01-2.167 2.166zM7.828 10.685a.167.167 0 00-.167.167v5.042a.167.167 0 00.167.167h58.344a.167.167 0 00.167-.167v-5.042a.167.167 0 00-.167-.167z"/>
  <path d="M45.812 10.685H28.188a1 1 0 01-1-1V4.618A2.621 2.621 0 0129.806 2h14.388a2.621 2.621 0 012.618 2.618v5.067a1 1 0 01-1 1zm-16.624-2h15.624V4.618A.618.618 0 0044.194 4H29.806a.618.618 0 00-.618.618zM47.462 56.03h-.088a1 1 0 01-.909-1.083l2.289-26.131a1 1 0 111.992.175l-2.288 26.127a1 1 0 01-.996.912zM37 56.03a1 1 0 01-1-1V28.9a1 1 0 112 0v26.13a1 1 0 01-1 1zM26.538 56.03a1 1 0 01-1-.913l-2.284-26.13a1 1 0 111.992-.175l2.289 26.131a1 1 0 01-.909 1.083.826.826 0 01-.088.004z"/>
</svg>